# xmcd CD database file
#
# Track frame offsets:
#	150
#	14276
#	30101
#	49377
#	68095
#	85901
#	104928
#	121406
#	135838
#	152394
#	175375
#
# Disc length: 2638 seconds
#
# Revision: 0
# Processed by: cddbd v1.5.2PL0 Copyright (c) Steve Scherf et al.
# Submitted via: CDex 1.70beta2
#
DISCID=860a4c0b
DTITLE=Max Cady Band - Autumn in the Ghetto
DYEAR=2002
DGENRE=Blues
TTITLE0=Betty
TTITLE1=Mr. Greed
TTITLE2=Autumn in the Ghetto
TTITLE3=Destiny
TTITLE4=Downtown
TTITLE5=I Feel You're Still Around
TTITLE6=I Wouldn't Trade With Anyone
TTITLE7=What'cha Think About That
TTITLE8=Another Plastic Girl
TTITLE9=Why
TTITLE10=Don't Let Your Guard Down
EXTD=YEAR: 2002
EXTT0=
EXTT1=
EXTT2=
EXTT3=
EXTT4=
EXTT5=
EXTT6=
EXTT7=
EXTT8=
EXTT9=
EXTT10=
PLAYORDER=
